# xmcd CD database file
#
# Track frame offsets:
#	150
#	14640
#	30865
#	45975
#	59870
#	75630
#	93432
#	105155
#	122550
#	140217
#	152745
#	165085
#	173522
#
# Disc length: 2490 seconds
#
# Revision: 2
# Processed by: cddbd v1.4PL0 Copyright (c) Steve Scherf et al.
# Submitted via: CDex 1.50
#
DISCID=9409b80d
DTITLE=Marisa Monte - Memorias, Cronicas e Declaracoes de Amor
DYEAR=1900
DGENRE=MPB
TTITLE0=Amor I love you
TTITLE1=Nao va embora
TTITLE2=O que me importa
TTITLE3=Neo E facil
TTITLE4=Perdao voce
TTITLE5=Tema de amor
TTITLE6=Abololo
TTITLE7=Para ver as meninas
TTITLE8=Cinco minutos
TTITLE9=Gentileza
TTITLE10=Agua tambem E mar
TTITLE11=Gotas de luar
TTITLE12=Sou seu sabia
EXTD=
EXTT0=
EXTT1=
EXTT2=
EXTT3=
EXTT4=
EXTT5=
EXTT6=
EXTT7=
EXTT8=
EXTT9=
EXTT10=
EXTT11=
EXTT12=
PLAYORDER=
